<svg width="50" height="51" fill="none" xmlns="http://www.w3.org/2000/svg"><path d="M18.542.007c-1.367.088-2.634 1.043-3.188 2.409L13.9 6.017c-.738 1.825-.034 3.997 1.786 4.714l4.234 1.673-9.532 23.524-4.257-1.68a3.286 3.286 0 00-1.353-.23c-1.346.06-2.608.937-3.146 2.266L.264 39.653c-.717 1.774.068 3.86 1.845 4.562l7.388 2.916c.012.005.023.013.034.019L19.278 51h13.689l.173-.057s3.118-1.238 3.894-4.342c.375.052.476.084 1.022.127.545.043 1.13.068 1.69.032.559-.037 1.093-.065 1.682-.474.647-.45.828-1.005 1.013-1.557.178-.556.31-1.126.393-1.703.123-.78.13-1.115.155-1.484.277-.151.465-.245.987-.558.806-.484 1.64-.936 2.25-1.678l.187-.23L50 19.004l-6.758-6.278 1.089-1.595c.949-1.392 1.207-2.746.918-3.849-.29-1.102-1.037-1.826-1.692-2.263a2.803 2.803 0 00-1.24-.442 2.435 2.435 0 00-1.255.181c-.758.342-1.268.938-1.74 1.63l-1.126 1.65-1.113-1.035-6.462-2.553.002-.002L19.918.224A3.174 3.174 0 0018.54.007h.001zm.113 2.267a.926.926 0 01.427.058l4.43 1.75a3.32 3.32 0 00-.61.957l-2.133 5.263-4.25-1.678c-.521-.206-.848-.933-.514-1.758l1.456-3.6c.25-.616.744-.95 1.196-.992h-.002zm7.393 2.903c.151 0 .307.025.458.085l9.343 3.692 3.091 2.871-.048-.019-3.33 8.211a1.133 1.133 0 00-.08.356s-.088 1.463-.32 3.165c-.231 1.7-.706 3.71-1.07 4.32-.166.28-1.169.924-2.526 1.744-1.358.82-3.013 1.948-4.292 3.842-1.015 1.502-.738 3.353-.53 5.142.206 1.789.463 3.613.351 4.342-.072.469-.913 2.295-1.745 3.73-.405.701-.825 1.393-1.261 2.074H19.71l-9.077-3.59-.266-.104c-.604-.238-.873-.866-.636-1.45l15.274-37.7a1.134 1.134 0 011.042-.71v-.001zm16.045 1.602c.028.006.074.038.206.126.342.227.65.56.754.954.104.395.097.976-.598 1.996l-.895 1.308L39.878 9.6 41.2 7.664c.355-.521.677-.788.795-.84.06-.027.07-.05.098-.045zM31.76 10.18a3.544 3.544 0 00-1.242.261c-.75.308-1.34.784-1.916 1.259v-.003c-.816.67-1.413 1.11-1.958 1.676-.544.567-.98 1.253-1.356 2.186-.898 2.218.125 4.79 2.334 5.662 2.21.873 4.726-.28 5.625-2.497.371-.914 1.326-3.28 1.635-4.039.673-1.662-.098-3.611-1.77-4.27a3.42 3.42 0 00-1.352-.235zm.056 2.242c.134-.005.272.028.463.103.484.193.729.742.5 1.31l-1.636 4.036c-.456 1.126-1.66 1.648-2.685 1.243-1.025-.405-1.52-1.58-1.064-2.704.306-.759.531-1.093.889-1.466.358-.372.911-.794 1.763-1.495.539-.444.998-.773 1.337-.913.17-.069.297-.11.431-.114h.002zm8.861 1.018l6.869 6.382-3.245 18.164c-.178.148-.825.652-1.495 1.055-.745.445-1.417.8-1.417.8l-.572.302-.03.648s-.045.91-.198 1.88c-.077.485-.182.982-.302 1.338-.068.203-.156.335-.194.4-.09.023-.266.073-.495.087-.455.021-.91.011-1.364-.029a21.87 21.87 0 01-1.825-.227L35.076 44v1.355c0 2.517-2.35 3.314-2.542 3.377H26.75c.193-.32.358-.576.567-.938.87-1.505 1.803-3.092 2.021-4.522.065-.415.075-.85.064-1.296l1.666.975a1.137 1.137 0 001.48-.295l2.642-3.48 2.506 2.475 1.596-1.615-3.425-3.381a1.135 1.135 0 00-1.703.119l-2.819 3.712-2.236-1.307c-.04-.286-.078-.568-.111-.853-.196-1.695-.092-3.242.159-3.617 1.007-1.488 2.317-2.403 3.584-3.168 1.266-.765 2.545-1.248 3.303-2.525.822-1.383 1.124-3.375 1.368-5.172.23-1.686.307-2.954.318-3.127l2.948-7.277zM20.39 34.028c-1.719.03-3.342 1.048-4.02 2.718-.376.926-.533 1.729-.519 2.514.015.787.16 1.508.308 2.546.159 1.12.99 1.852 1.642 2.14.395.174.82.273 1.252.293a1.138 1.138 0 00.97-.495l1.768-2.608c.18.034.18.061.395.076.345.025.737.027 1.18-.11.444-.134.99-.5 1.228-1.086.903-2.227-.233-4.785-2.483-5.675a4.467 4.467 0 00-1.72-.313zM4.853 36.284c.151-.008.302.016.443.072l4.239 1.674-1.907 4.706c-.142.36-.219.742-.227 1.129l-4.454-1.758c-.563-.223-.863-.899-.577-1.604l1.364-3.367c.213-.529.668-.828 1.12-.85l-.001-.002zm15.568.005c.282-.003.57.047.854.16 1.053.416 1.492 1.485 1.213 2.494-.057.002-.07.011-.142.006a4.165 4.165 0 01-.743-.137 1.137 1.137 0 00-1.28.445l-1.698 2.5c-.091-.049-.188-.06-.217-.27-.155-1.086-.278-1.767-.288-2.27-.01-.503.054-.877.355-1.619a2.11 2.11 0 011.946-1.31z" /></svg>