<svg width="73" height="54" fill="none" xmlns="http://www.w3.org/2000/svg"><path fill-rule="evenodd" clip-rule="evenodd" d="M31.095 10.657c5.885-5.886 15.427-5.886 21.313 0a1.415 1.415 0 010 2L30.934 34.131a1.137 1.137 0 01-1.608-1.608l20.846-20.846c-5.026-4.401-12.676-4.206-17.47.588L7.436 37.53a5.969 5.969 0 108.442 8.44l5.817-5.816a1.137 1.137 0 011.607 1.608l-5.816 5.817A8.243 8.243 0 115.828 35.923l25.267-25.266zm-3.35 25.055a1.137 1.137 0 010 1.608l-1.172 1.172a1.137 1.137 0 01-1.608-1.608l1.172-1.172a1.137 1.137 0 011.608 0z" /><path fill-rule="evenodd" clip-rule="evenodd" d="M13.04 30.302a5.803 5.803 0 010-8.206l5.064-5.064a5.803 5.803 0 018.206 0l-1.608 1.608a3.528 3.528 0 00-4.99 0l-5.064 5.064a3.528 3.528 0 000 4.99l-1.608 1.608zM45.98 15.993a1.3 1.3 0 011.838 0l8.321 8.321a1.95 1.95 0 010 2.757l-3.61 3.61a1.95 1.95 0 01-2.756 0l-9.24-9.24 5.447-5.448zm.919 1.838l-3.61 3.61 7.862 7.861 3.61-3.61-7.862-7.861zM55.377 42.092a.974.974 0 01-1.378 0l-1.573-1.572a3.573 3.573 0 010-5.054l.134-.134a3.573 3.573 0 015.053 0l5.927 5.927a.975.975 0 01-1.379 1.378l-5.926-5.926a1.624 1.624 0 00-2.297 0l-.134.133a1.624 1.624 0 000 2.297l1.573 1.573c.38.38.38.998 0 1.378zM67.957 29.837a.975.975 0 000-1.378l-1.573-1.573a3.573 3.573 0 00-5.053 0l-.134.134a3.573 3.573 0 000 5.054L67.124 38a.974.974 0 101.378-1.378l-5.927-5.927a1.624 1.624 0 010-2.297l.134-.133a1.624 1.624 0 012.297 0l1.573 1.572c.38.38.998.38 1.378 0zM66.224 40.526a.975.975 0 01-1.378 0l-7.797-7.797a.974.974 0 111.379-1.378l7.796 7.797c.38.38.38.997 0 1.378zM38.647 15.706c.381.381.381.998 0 1.379l-8.367 8.367a.975.975 0 01-1.378-1.378l8.367-8.368a.974.974 0 011.378 0zM25.653 28.7c.38.381.38.998 0 1.379l-8.367 8.367a.975.975 0 01-1.379-1.378l8.368-8.367a.975.975 0 011.378 0z" /></svg>