<svg width="65" height="37" fill="none" xmlns="http://www.w3.org/2000/svg"><path d="M36.482.012a1.302 1.302 0 00-1.12 1.416c.022.222.1.434.225.618l6.135 8.911H28.193l-1.908-4.72a2.852 2.852 0 00-2.642-1.79A2.86 2.86 0 0020.8 7.296v3.661h-5.322l-.122.04-10.034 1.791C2.24 13.348 0 16.08 0 19.218v7.365c0 2.142 1.762 3.906 3.9 3.906h1.422C5.941 34.182 9.146 37 13 37c3.855 0 7.059-2.818 7.678-6.51h23.644C44.941 34.181 48.145 37 52 37s7.059-2.818 7.678-6.51H61.1c2.139 0 3.9-1.765 3.9-3.907v-7.162c0-3.255-2.427-6.038-5.647-6.47l-14.421-1.912L37.74.582a1.299 1.299 0 00-1.258-.57zm-12.838 7.04a.26.26 0 01.244.162l1.502 3.743H23.4V7.295c0-.153.091-.244.244-.244zm-8.044 6.51h28.6l14.828 1.993a3.867 3.867 0 012.417 1.294c.62.712.96 1.627.955 2.572v7.162c0 .737-.564 1.302-1.3 1.302h-1.422c-.619-3.693-3.823-6.51-7.678-6.51s-7.059 2.817-7.678 6.51H20.678c-.619-3.693-3.823-6.51-7.678-6.51-3.854 0-7.059 2.817-7.678 6.51H3.9c-.736 0-1.3-.565-1.3-1.302v-7.365a3.926 3.926 0 013.21-3.866l9.79-1.79zM13 23.979c2.89 0 5.2 2.314 5.2 5.208a5.181 5.181 0 01-5.2 5.209c-2.89 0-5.2-2.314-5.2-5.209A5.181 5.181 0 0113 23.98zm39 0c2.89 0 5.2 2.314 5.2 5.208a.868.868 0 000 .163 5.197 5.197 0 01-1.575 3.583A5.18 5.18 0 0152 34.396c-2.89 0-5.2-2.314-5.2-5.209A5.181 5.181 0 0152 23.98z"/></svg>