<svg xmlns="http://www.w3.org/2000/svg" xmlns:xlink="http://www.w3.org/1999/xlink" width="127" height="33"><defs><circle id="a" cx="16.5" cy="16.5" r="16.5"/></defs><g fill="none" fill-rule="evenodd"><path d="M45.742 25 40 9.879h3.39l3.077 8.79c.528 1.477.847 2.671.957 3.583h.11c.081-.656.4-1.85.956-3.582l3.076-8.791h3.418L49.214 25h-3.472Zm18.143.273c-2.352 0-4.19-.685-5.517-2.057-1.326-1.372-1.99-3.26-1.99-5.667 0-2.47.616-4.412 1.847-5.824 1.23-1.413 2.92-2.12 5.072-2.12 1.996 0 3.573.607 4.73 1.819 1.158 1.212 1.737 2.88 1.737 5.004v1.736H59.688c.045 1.468.442 2.595 1.189 3.384.747.788 1.8 1.182 3.158 1.182.893 0 1.725-.084 2.495-.252.77-.17 1.598-.45 2.482-.841v2.611a9.865 9.865 0 0 1-2.38.793c-.801.155-1.717.232-2.747.232Zm-.588-13.234c-1.021 0-1.839.324-2.454.97-.615.648-.982 1.591-1.1 2.83h6.862c-.018-1.248-.319-2.193-.902-2.836-.583-.643-1.385-.964-2.406-.964ZM83.517 25h-11.47v-1.982l7.642-10.678h-7.177V9.879h10.787v2.242L75.82 22.54h7.698V25Zm9.885.273c-2.351 0-4.19-.685-5.516-2.057-1.326-1.372-1.99-3.26-1.99-5.667 0-2.47.616-4.412 1.846-5.824 1.23-1.413 2.921-2.12 5.072-2.12 1.997 0 3.573.607 4.73 1.819 1.158 1.212 1.737 2.88 1.737 5.004v1.736H89.205c.046 1.468.442 2.595 1.19 3.384.747.788 1.8 1.182 3.158 1.182.893 0 1.725-.084 2.495-.252.77-.17 1.597-.45 2.481-.841v2.611a9.865 9.865 0 0 1-2.379.793c-.802.155-1.718.232-2.748.232Zm-.588-13.234c-1.02 0-1.838.324-2.454.97-.615.648-.982 1.591-1.1 2.83h6.863c-.018-1.248-.319-2.193-.902-2.836-.584-.643-1.386-.964-2.407-.964Zm20.276 8.654c0 1.477-.538 2.61-1.613 3.398-1.076.788-2.616 1.182-4.622 1.182-2.014 0-3.632-.305-4.853-.916v-2.775c1.777.82 3.432 1.23 4.963 1.23 1.978 0 2.967-.596 2.967-1.79 0-.383-.11-.702-.328-.958-.22-.255-.58-.52-1.08-.793-.502-.273-1.2-.583-2.092-.93-1.741-.674-2.92-1.348-3.535-2.023-.615-.674-.922-1.55-.922-2.625 0-1.294.521-2.299 1.565-3.014 1.044-.716 2.463-1.074 4.259-1.074 1.777 0 3.459.36 5.045 1.08l-1.04 2.42c-1.63-.674-3.003-1.011-4.115-1.011-1.695 0-2.543.483-2.543 1.449 0 .474.222.875.664 1.203.442.328 1.405.78 2.891 1.354 1.249.483 2.156.925 2.72 1.326.566.4.985.863 1.259 1.387.273.525.41 1.151.41 1.88Zm13.63 0c0 1.477-.537 2.61-1.613 3.398-1.075.788-2.615 1.182-4.62 1.182-2.015 0-3.633-.305-4.854-.916v-2.775c1.777.82 3.431 1.23 4.963 1.23 1.978 0 2.966-.596 2.966-1.79 0-.383-.109-.702-.328-.958-.218-.255-.578-.52-1.08-.793-.501-.273-1.198-.583-2.091-.93-1.741-.674-2.92-1.348-3.535-2.023-.615-.674-.923-1.55-.923-2.625 0-1.294.522-2.299 1.566-3.014 1.044-.716 2.463-1.074 4.259-1.074 1.777 0 3.459.36 5.045 1.08l-1.04 2.42c-1.631-.674-3.003-1.011-4.115-1.011-1.695 0-2.543.483-2.543 1.449 0 .474.221.875.663 1.203.442.328 1.406.78 2.892 1.354 1.249.483 2.156.925 2.72 1.326.566.4.985.863 1.259 1.387.273.525.41 1.151.41 1.88Z" fill="#464646"/><mask id="b" fill="#fff"><use xlink:href="#a"/></mask><use fill="#FFF" xlink:href="#a"/><g mask="url(#b)" fill="#F4301F"><path d="M9.819.812A6.874 6.874 0 0 0 9.627.08a11.97 11.97 0 0 1 2.149-.203h8.66l-7.191 17.726L9.819.812ZM3.404 6.46 7 23h8l8.409-21.489C29.07 4.125 33 9.853 33 16.5 33 25.613 25.615 33 16.5 33 7.387 33 0 25.615 0 16.5A16.43 16.43 0 0 1 3.404 6.46Z"/></g></g><script/></svg>