<svg width="17" height="18" fill="none" xmlns="http://www.w3.org/2000/svg"><path d="M16 12.257v2.264a1.508 1.508 0 01-1.645 1.508 14.922 14.922 0 01-6.508-2.316A14.71 14.71 0 013.32 9.186a14.935 14.935 0 01-2.315-6.541A1.51 1.51 0 012.507 1H4.77a1.508 1.508 0 011.508 1.298 9.69 9.69 0 00.528 2.12 1.51 1.51 0 01-.34 1.592l-.957.958a12.07 12.07 0 004.525 4.527l.958-.958a1.508 1.508 0 011.591-.34 9.681 9.681 0 002.12.529 1.508 1.508 0 011.296 1.531z" stroke="#4B4B4B" stroke-width="2" stroke-linecap="round" stroke-linejoin="round"/></svg>