<svg width="49" height="51" fill="none" xmlns="http://www.w3.org/2000/svg"><path d="M36.906.97c-.043.007-.086.02-.125.03a.994.994 0 00-.781.703c-.105.367.004.758.281 1.016L37.563 4 30 11.563l-1.063-1.033a1.073 1.073 0 00-.187-.25l-.156-.125a1.303 1.303 0 00-.094-.062L25.719 7.28a1.004 1.004 0 00-.813-.312c-.043.008-.086.02-.125.031a.994.994 0 00-.781.703c-.105.367.004.758.281 1.016L26.563 11 5.28 32.281a.997.997 0 00-.25.97l1.75 6.968L0 47v4l8.781-8.78 6.969 1.75c.344.096.715 0 .969-.25L38 22.436l2.281 2.282a1.015 1.015 0 001.66-.33 1.014 1.014 0 00-.222-1.108l-2.875-2.875a1.025 1.025 0 00-.313-.28L37.438 19 45 11.437l1.281 1.282a1.015 1.015 0 001.66-.33 1.015 1.015 0 00-.222-1.108l-10-10a1.004 1.004 0 00-.813-.312zM39 5.436L43.563 10 36 17.563 31.437 13 39 5.437zm-11 7L36.563 21 15.686 41.875l-6.875-1.688-1.687-6.874L8.5 31.936c.031.024.063.043.094.063l3.687 3.72a1.015 1.015 0 001.66-.33 1.014 1.014 0 00-.222-1.109L10 30.594a.477.477 0 00-.063-.063l2.563-2.593h.031c.02.023.04.042.063.062l1.687 1.72a1.015 1.015 0 001.66-.33 1.014 1.014 0 00-.222-1.109L14 26.594a.48.48 0 00-.063-.063l2.594-2.593c.02.023.04.042.063.062l3.687 3.72a1.015 1.015 0 001.66-.33 1.014 1.014 0 00-.222-1.109L18 22.594a.48.48 0 00-.063-.063l2.594-2.593c.02.023.04.042.063.062l1.687 1.72a1.015 1.015 0 001.66-.33 1.014 1.014 0 00-.222-1.109L22 18.594a.48.48 0 00-.063-.063l2.594-2.593c.02.023.04.042.063.062l3.687 3.72a1.015 1.015 0 001.66-.33 1.014 1.014 0 00-.222-1.109L26 14.594a.48.48 0 00-.063-.063L28 12.437z" /></svg>