<svg xmlns="http://www.w3.org/2000/svg" version="1.1" id="Capa_1" x="0" y="0" viewBox="0 0 405.28 405.28" xml:space="preserve"><path d="M397.28 74.64H224.8a29.996 29.996 0 00-22.16 9.92 30.001 30.001 0 00-22.16-9.92h-104v-24a8 8 0 00-8-8H33.76a8 8 0 00-8 8v24H8a8 8 0 00-8 8v241.28a8 8 0 008 8h172.48c7.82 0 14.16 6.339 14.16 14.16v.08a8 8 0 0016 0c0-7.82 6.34-14.16 14.16-14.16h172.48a8 8 0 008-8V82.64a8 8 0 00-8-8zm-355.52-16H60.4v16H41.76v-16zm152.88 260.88a29.92 29.92 0 00-14.16-3.52H16V90.64h164.48c7.82 0 14.16 6.34 14.16 14.16v214.72zm194.64-3.6H224.8a29.92 29.92 0 00-14.16 3.52V104.8c0-7.82 6.34-14.16 14.16-14.16h164.48v225.28z"/><path d="M166.56 346.64H21.92a8 8 0 000 16h144.64a8 8 0 000-16zM382.64 346.64H238.08a8 8 0 000 16h144.56a8 8 0 000-16zM118.56 122.24H52a8 8 0 000 16h66.56a8 8 0 000-16zM158.56 167.84H52a8 8 0 000 16h106.56a8 8 0 000-16zM158.56 213.52H52a8 8 0 000 16h106.56a8 8 0 000-16zM158.56 259.2H52a8 8 0 000 16h106.56a8 8 0 000-16zM313.28 122.24h-66.56a8 8 0 000 16h66.56a8 8 0 000-16zM353.28 167.84H246.72a8 8 0 000 16h106.56a8 8 0 000-16zM353.28 213.52H246.72a8 8 0 000 16h106.56a8 8 0 000-16zM353.28 259.2H246.72a8 8 0 000 16h106.56a8 8 0 000-16z"/><script id="globalVarsDetection"/></svg>